<svg width="448" height="348" viewBox="0 0 448 348" fill="none" xmlns="http://www.w3.org/2000/svg">
<path d="M0.743205 32.1409C-1.51638 33.7902 -4.67129 33.3206 -6.29743 31.0929C-7.92356 28.8651 -7.40925 25.7172 -5.14966 24.0678C-2.89007 22.4184 0.264832 22.888 1.89097 25.1158C3.51711 27.3436 3.00279 30.4915 0.743205 32.1409Z" fill="#134E4A"/>
<path d="M128.878 221.268C126.55 222.087 124.004 220.888 123.197 218.592C122.39 216.297 123.625 213.769 125.953 212.95C128.282 212.132 130.827 213.331 131.634 215.626C132.441 217.922 131.206 220.45 128.878 221.268Z" fill="#134E4A"/>
<path d="M217.391 188.682C214.554 190.811 210.546 190.269 208.447 187.472C206.348 184.675 206.947 180.676 209.784 178.547C212.621 176.418 216.628 176.96 218.727 179.757C220.826 182.553 220.228 186.553 217.391 188.682Z" fill="#134E4A"/>
<path d="M59.4732 314.463C55.9584 314.939 52.7239 312.511 52.255 309.046C51.7861 305.581 54.2592 302.381 57.774 301.905C61.2888 301.43 64.5233 303.857 64.9922 307.323C65.4611 310.788 62.988 313.988 59.4732 314.463Z" fill="#134E4A"/>
<path d="M120.702 135.032C117.718 136.949 113.761 136.116 111.871 133.174C109.981 130.232 110.869 126.287 113.853 124.37C116.838 122.453 120.795 123.285 122.685 126.228C124.575 129.17 123.686 133.115 120.702 135.032Z" fill="#134E4A"/>
<path d="M22.8806 306.365C20.4445 303.787 20.5303 299.744 23.072 297.342C25.6137 294.94 29.6552 295.084 32.0912 297.662C34.5273 300.24 34.4415 304.283 31.8998 306.684C29.3581 309.086 25.3166 308.943 22.8806 306.365Z" fill="#134E4A"/>
<path d="M432.797 34.2255C429.262 34.5181 426.158 31.9262 425.869 28.4412C425.581 24.9562 428.217 21.8891 431.751 21.5965C435.286 21.3038 438.39 23.8958 438.679 27.3808C438.967 30.8658 436.332 33.9329 432.797 34.2255Z" fill="#134E4A"/>
<path d="M259.152 208.742C255.637 209.217 252.403 206.79 251.934 203.324C251.465 199.859 253.938 196.659 257.453 196.184C260.968 195.708 264.202 198.136 264.671 201.601C265.14 205.066 262.667 208.266 259.152 208.742Z" fill="#134E4A"/>
<path d="M170.031 157.112L165.221 148.306L160.411 139.5L170.442 139.738L180.473 139.975L175.252 148.544L170.031 157.112Z" fill="#115E59"/>
<path d="M143.938 29.9047L133.969 28.7674L124 27.6301L129.969 19.5652L135.939 11.5003L139.939 20.7025L143.938 29.9047Z" fill="#115E59"/>
<path d="M26.3796 -0.152944L30.9291 8.79021L35.4785 17.7334L25.4588 17.2017L15.4391 16.6701L20.9093 8.25858L26.3796 -0.152944Z" fill="#115E59"/>
<path d="M414.027 56.7863L410.033 47.5817L406.039 38.3771L416.008 39.5204L425.976 40.6638L420.002 48.7251L414.027 56.7863Z" fill="#115E59"/>
<path d="M298.86 306.586L305.078 298.711L311.296 290.836L315.007 300.158L318.718 309.481L308.789 308.033L298.86 306.586Z" fill="#115E59"/>
<path d="M41.631 54.0265L32.0364 51.0902L22.4419 48.1538L29.7821 41.3129L37.1223 34.4719L39.3766 44.2492L41.631 54.0265Z" fill="#115E59"/>
<path d="M108.529 252.815L115.354 254.89C115.354 254.89 108.489 240.826 115.562 233.161C125.658 222.221 122.771 210.491 122.771 210.491L115.577 208.264C115.577 208.264 116.09 217.254 107.732 229.069C99.0227 241.382 108.529 252.815 108.529 252.815Z" fill="#2DD4BF"/>
<path d="M46.8664 342.409L53.7618 340.586C53.7618 340.586 40.5276 332.232 42.5136 321.994C45.3484 307.38 36.725 298.92 36.725 298.92L29.4346 300.808C29.4346 300.808 34.5988 308.186 33.7022 322.63C32.768 337.683 46.8664 342.409 46.8664 342.409Z" fill="#2DD4BF"/>
<path d="M117.445 176.076L124.67 170.853C124.67 170.853 105.481 167.05 103.2 154.214C99.9456 135.893 86.0873 129.896 86.0873 129.896L78.4303 135.372C78.4303 135.372 87.7672 141.659 93.2068 158.913C98.8757 176.892 117.445 176.076 117.445 176.076Z" fill="#2DD4BF"/>
<path d="M209.429 195.675C209.429 195.675 208.935 201.133 203.215 202.313C198.201 203.347 198.2 205.597 198.2 205.597C198.2 205.597 204.826 209.505 208.298 214.262C210.933 217.872 210.594 222.974 210.594 222.974C210.594 222.974 211.097 220.034 217.778 217.169C219.836 216.286 223.681 215.997 223.681 215.997C223.681 215.997 221.549 209.447 218.666 204.95C215.783 200.453 209.429 195.675 209.429 195.675Z" fill="#0D9488"/>
<path d="M102.3 92.0026C102.3 92.0026 106.952 94.8972 105.434 100.537C104.103 105.481 106.112 106.494 106.112 106.494C106.112 106.494 112.582 102.332 118.393 101.37C122.801 100.64 127.206 103.237 127.206 103.237C127.206 103.237 124.807 101.466 125.252 94.2096C125.389 91.9747 126.859 88.4106 126.859 88.4106C126.859 88.4106 120.051 87.3693 114.738 87.9224C109.424 88.4755 102.3 92.0026 102.3 92.0026Z" fill="#0D9488"/>
<path d="M-8.9413 31.0191C-8.9413 31.0191 -8.76896 25.5423 -3.12797 24.0286C1.81709 22.7017 1.68643 20.4562 1.68643 20.4562C1.68643 20.4562 -5.15789 16.9436 -8.90342 12.3977C-11.7449 8.94947 -11.706 3.83606 -11.706 3.83606C-11.706 3.83606 -12.0357 6.80015 -18.5375 10.0526C-20.5401 11.0543 -24.3608 11.5691 -24.3608 11.5691C-24.3608 11.5691 -21.8489 17.9822 -18.7068 22.3023C-15.5647 26.6225 -8.9413 31.0191 -8.9413 31.0191Z" fill="#0D9488"/>
<path d="M81.1219 55.4332C81.1219 55.4332 81.2943 49.9564 86.9353 48.4426C91.8803 47.1157 91.7497 44.8703 91.7497 44.8703C91.7497 44.8703 84.9053 41.3577 81.1598 36.8118C78.3184 33.3635 78.3572 28.2501 78.3572 28.2501C78.3572 28.2501 78.0275 31.2142 71.5257 34.4666C69.5231 35.4684 65.7024 35.9832 65.7024 35.9832C65.7024 35.9832 68.2143 42.3962 71.3564 46.7164C74.4985 51.0365 81.1219 55.4332 81.1219 55.4332Z" fill="#0D9488"/>
<path d="M378.588 180.928C378.588 180.928 379.898 175.607 385.731 175.302C390.844 175.035 391.184 172.811 391.184 172.811C391.184 172.811 385.222 167.95 382.506 162.723C380.446 158.758 381.549 153.765 381.549 153.765C381.549 153.765 380.609 156.595 373.572 158.421C371.405 158.984 367.561 158.691 367.561 158.691C367.561 158.691 368.681 165.487 370.854 170.367C373.027 175.247 378.588 180.928 378.588 180.928Z" fill="#0D9488"/>
<path d="M26.8223 9.05539C26.8223 9.05539 22.2109 6.09564 23.808 0.477685C25.2082 -4.44711 23.2142 -5.48785 23.2142 -5.48785C23.2142 -5.48785 16.6859 -1.41788 10.862 -0.537584C6.44401 0.13039 2.07592 -2.52823 2.07592 -2.52823C2.07592 -2.52823 4.45028 -0.723534 3.90318 6.52579C3.73466 8.75857 2.21482 12.3016 2.21482 12.3016C2.21482 12.3016 9.00776 13.4386 14.3283 12.9603C19.6488 12.4819 26.8223 9.05539 26.8223 9.05539Z" fill="#0D9488"/>
<path d="M4.09288 359.773C4.09288 359.773 4.26522 354.296 9.90621 352.782C14.8513 351.456 14.7206 349.21 14.7206 349.21C14.7206 349.21 7.87629 345.697 4.13076 341.152C1.2893 337.703 1.32813 332.59 1.32813 332.59C1.32813 332.59 0.998475 335.554 -5.50335 338.806C-7.50591 339.808 -11.3267 340.323 -11.3267 340.323C-11.3267 340.323 -8.81476 346.736 -5.67265 351.056C-2.53054 355.376 4.09288 359.773 4.09288 359.773Z" fill="#0D9488"/>
<path d="M245.952 365.566C245.952 365.566 246.124 360.089 251.765 358.575C256.71 357.249 256.579 355.003 256.579 355.003C256.579 355.003 249.735 351.49 245.99 346.945C243.148 343.496 243.187 338.383 243.187 338.383C243.187 338.383 242.857 341.347 236.356 344.599C234.353 345.601 230.532 346.116 230.532 346.116C230.532 346.116 233.044 352.529 236.186 356.849C239.328 361.169 245.952 365.566 245.952 365.566Z" fill="#0D9488"/>
<path d="M55.6909 89.1527C55.6909 89.1527 61.0342 90.3669 61.4438 96.1931C61.8028 101.3 64.0319 101.601 64.0319 101.601C64.0319 101.601 68.7859 95.5523 73.9629 92.743C77.89 90.6117 82.9021 91.6255 82.9021 91.6255C82.9021 91.6255 80.0554 90.7363 78.1033 83.7334C77.5021 81.5764 77.7258 77.7277 77.7258 77.7277C77.7258 77.7277 70.9512 78.9697 66.1109 81.2298C61.2706 83.4899 55.6909 89.1527 55.6909 89.1527Z" fill="#0D9488"/>
<path d="M424.828 148.299C424.828 148.299 430.172 149.513 430.581 155.34C430.94 160.447 433.169 160.747 433.169 160.747C433.169 160.747 437.923 154.699 443.1 151.889C447.027 149.758 452.039 150.772 452.039 150.772C452.039 150.772 449.193 149.883 447.241 142.88C446.639 140.723 446.863 136.874 446.863 136.874C446.863 136.874 440.089 138.116 435.248 140.376C430.408 142.636 424.828 148.299 424.828 148.299Z" fill="#0D9488"/>
<path d="M327.419 322.476C327.419 322.476 325.897 317.212 330.799 314.035C335.096 311.251 334.28 309.155 334.28 309.155C334.28 309.155 326.687 307.919 321.724 304.746C317.96 302.34 316.423 297.463 316.423 297.463C316.423 297.463 317.022 300.384 311.836 305.48C310.239 307.049 306.762 308.715 306.762 308.715C306.762 308.715 311.126 314.044 315.445 317.187C319.764 320.331 327.419 322.476 327.419 322.476Z" fill="#0D9488"/>
<path d="M253.483 156.34C253.483 156.34 257.745 152.897 262.573 156.184C266.806 159.065 268.422 157.5 268.422 157.5C268.422 157.5 266.617 150.022 267.617 144.217C268.376 139.814 272.276 136.507 272.276 136.507C272.276 136.507 269.815 138.191 263.107 135.387C261.041 134.523 258.158 131.964 258.158 131.964C258.158 131.964 254.938 138.052 253.715 143.253C252.492 148.453 253.483 156.34 253.483 156.34Z" fill="#0D9488"/>
</svg>
