<svg width="65" height="64" viewBox="0 0 65 64" fill="none" xmlns="http://www.w3.org/2000/svg">
<path d="M29.313 39.4573L41.4371 61.1571C42.4483 62.9658 44.929 63.264 46.3383 61.7446L48.6858 59.2154L50.4368 57.2787C50.9719 56.6874 51.6861 56.288 52.4695 56.1434L55.0371 55.6672L58.4215 54.9926C60.4541 54.5882 61.4999 52.3187 60.4899 50.5101L48.3658 28.8102L29.313 39.456V39.4573Z" fill="#49DF81"/>
<path d="M35.6643 35.9078L48.687 59.2154L50.4381 57.2787C50.9808 56.6835 51.6797 56.2931 52.4707 56.1434L55.0384 55.6672L42.0157 32.3597L35.6643 35.9078Z" fill="#B9F0CE"/>
<path d="M35.6873 39.4573L23.5631 61.1571C22.5519 62.9658 20.0713 63.264 18.662 61.7446L16.3145 59.2154L14.5634 57.2787C14.0284 56.6874 13.3142 56.288 12.5308 56.1434L9.96311 55.6672L6.57879 54.9926C4.54615 54.5882 3.50039 52.3187 4.51031 50.5101L16.6345 28.8102L35.6873 39.456V39.4573Z" fill="#49DF81"/>
<path d="M29.336 35.9078L16.3133 59.2154L14.5622 57.2787C14.0195 56.6835 13.3206 56.2931 12.5296 56.1434L9.96191 55.6672L22.9846 32.3597L29.336 35.9078Z" fill="#B9F0CE"/>
<path d="M32.4999 47.063C45.1426 47.063 55.3914 36.8142 55.3914 24.1715C55.3914 11.5289 45.1426 1.28 32.4999 1.28C19.8573 1.28 9.6084 11.5289 9.6084 24.1715C9.6084 36.8142 19.8573 47.063 32.4999 47.063Z" fill="#16A54B"/>
<path d="M32.4999 41.3402C41.9819 41.3402 49.6686 33.6535 49.6686 24.1715C49.6686 14.6895 41.9819 7.00288 32.4999 7.00288C23.018 7.00288 15.3313 14.6895 15.3313 24.1715C15.3313 33.6535 23.018 41.3402 32.4999 41.3402Z" fill="#B9F0CE"/>
<path d="M36.4833 19.6672L42.4148 21.033C43.1418 21.2006 43.4273 22.0813 42.9383 22.6445L38.9396 27.2371L39.4746 33.3069C39.5399 34.0493 38.7898 34.5946 38.1038 34.3027L32.4974 31.9168L26.8935 34.3002C26.2074 34.592 25.4574 34.0467 25.5226 33.3043L26.059 27.2384L22.0602 22.6445C21.57 22.0826 21.8567 21.2006 22.5838 21.033L28.5191 19.6672L31.6538 14.441C32.0378 13.801 32.9646 13.801 33.3473 14.441L36.4807 19.6672H36.4833Z" fill="#16A54B"/>
</svg>
